/* XPM */
static char * wmnut_master_LowColor[] = {
"128 120 16 1",
" 	c None",
".	c #000000",
"+	c #282828",
"@	c #D3D3D3",
"#	c #20B0A8",
"$	c #00E500",
"%	c #E90000",
"&	c #004840",
"*	c #E9E900",
"=	c #FF0000",
"-	c #00FF00",
";	c #F7F7FF",
">	c #888888",
",	c #A8A8A8",
"'	c #B2B2B2",
")	c #FFFF00",
"................................................................................................................................",
"................................................................................................................................",
"................................................................................................................................",
"................................................................................................................................",
"................................................................................................................................",
".....++++++++++++++++++++++++++++++++++++++++++++++++++++++@......++++++++++++++++++++++++++++++.++++++++++++++.................",
".....++++++++++++++++++++++++++++++++++++++++++++++++++++++@......+++++++#####+++++$$$$$$$$$$+++.++%%%+++$$$+++.................",
".....++&&&++++++++++++####++++####+++++++++####++++####++++@......++++++#++++###+++$++++++++$+++.+%+++%+$+++$++.................",
".....+&+++&++++++++++#++++#++#++++#+++&#++#++++#++#++++#+++@......++++++#++++#+++++$++++++++$$++.+%+++++$++++++.................",
".....+&++++++++++#+++#++++#++#++++#+++&#++#++++#++#++++#+++@......++++###++++#+++++$++++++++$$++.+%+++++$++++++.................",
".....+&++++++++++#+++#++++#++#++++#+++++++#++++#++#++++#+++@......+++#++#++++###+++$++++++++$$++.+%+++++$++++++.................",
".....+&++++++++#####+&&&&&&++&&&&&&+++++++&&&&&&++&&&&&&+++@......+++#+++#####+++++$++++++++$+++.+%+++%+$+++$++.................",
".....+&+++&++++++#+++#++++#++#++++#+++++++#++++#++#++++#+++@......+++#+++++++++++++$$$$$$$$$$+++.++%%%+++$$$+++.................",
".....++&&&+++++++#+++#++++#++#++++#+++&#++#++++#++#++++#+++@......++++++++++++++++++++++++++++++.++++++++++++++.................",
".....++++++++++++++++#++++#++#++++#+++&#++#++++#++#++++#+++@......++++++++++++++++++++++++++++++................................",
".....+++++++++++++++++####++++####+++++++++####++++####++++@....................................................................",
".....++++++++++++++++++++++++++++++++++++++++++++++++++++++@....................................................................",
".....++++++++++++++++++++++++++++++++++++++++++++++++++++++@....................................................................",
".....++++++++++++++++++++++++++++++++++++++++++++++++++++++@....................................................................",
".....++++++++++++++++++++++++++++++++++++++++++++++++++++++@......++++++++++++++++++++++++++++++.++++++++++++++.................",
".....++++++++++++++++++++++++++++++++++++++++++++++++++++++@......+++**********++++%%%%%%%%%%+++.++&&&&&&&&&&++.................",
".....++#+#+#+#+#+#+#+#+#+#+#+#+#+#+#+#+#+#+#+#+#+#+#+#+#+++@......+++*++++++++*++++%++++++++%+++.++&++++++++&++.................",
".....++#+#+#+#+#+#+#+#+#+#+#+#+#+#+#+#+#+#+#+#+#+#+#+#+#+++@......+++*++++++++**+++%++++++++%%++.++&++++++++&&+.................",
".....++#+#+#+#+#+#+#+#+#+#+#+#+#+#+#+#+#+#+#+#+#+#+#+#+#+++@......+++*++++++++**+++%++++++++%%++.++&++++++++&&+.................",
".....++#+#+#+#+#+#+#+#+#+#+#+#+#+#+#+#+#+#+#+#+#+#+#+#+#+++@......+++*++++++++**+++%++++++++%%++.++&++++++++&&+.................",
".....++#+#+#+#+#+#+#+#+#+#+#+#+#+#+#+#+#+#+#+#+#+#+#+#+#+++@......+++*++++++++*++++%++++++++%+++.++&++++++++&++.................",
".....++#+#+#+#+#+#+#+#+#+#+#+#+#+#+#+#+#+#+#+#+#+#+#+#+#+++@......+++**********++++%%%%%%%%%%+++.++&&&&&&&&&&++.................",
".....++#+#+#+#+#+#+#+#+#+#+#+#+#+#+#+#+#+#+#+#+#+#+#+#+#+++@......++++++++++++++++++++++++++++++.++++++++++++++.................",
".....++++++++++++++++++++++++++++++++++++++++++++++++++++++@......++++++++++++++++++++++++++++++.++++++++++++++.................",
".....++=+#+#+#+#+#+#+#+#+#+#+#+#+#+#+#+#+#+#+#+#+#+#+#+-+++@....................................................................",
".....++++++++++++++++++++++++++++++++++++++++++++++++++++++@....................................................................",
".....++++++++++++++++++++++++++++++++++++++++++++++++++++++@......&+&+&+&+&+&+&+&+&+&+&+&+&+&+&+&+&+&+&+&+&+&+&+&+&.............",
".....++++++++++++++++++++++++++++++++++++++++++++++++++++++@......&+&+&+&+&+&+&+&+&+&+&+&+&+&+&+&+&+&+&+&+&+&+&+&+&.............",
".....++++++++++++++++++++++++++++++++++++++++++++++++++++++@......&+&+&+&+&+&+&+&+&+&+&+&+&+&+&+&+&+&+&+&+&+&+&+&+&.............",
".....++&++###+++###+++#++++++++++++++&++&&&+++&&&+++&++++++@......&+&+&+&+&+&+&+&+&+&+&+&+&+&+&+&+&+&+&+&+&+&+&+&+&.............",
".....++#+#+++#+#+++#+#+#+#+++++++++++&+&+++&+&+++&+&+&+&+++@......&+&+&+&+&+&+&+&+&+&+&+&+&+&+&+&+&+&+&+&+&+&+&+&+&.............",
".....++#+#+++#+#+++#++#+#++++++++++++&+&+++&+&+++&++&+&++++@......&+&+&+&+&+&+&+&+&+&+&+&+&+&+&+&+&+&+&+&+&+&+&+&+&.............",
".....++&+&&&&&+&&&&&+++#+++++++++++++&+&&&&&+&&&&&+++&+++++@......&+&+&+&+&+&+&+&+&+&+&+&+&+&+&+&+&+&+&+&+&+&+&+&+&.............",
".....++#+#+++#+#+++#++#+#++++++++++++&+&+++&+&+++&++&+&++++@......+++++++++++++++++++++++++++++++++++++++++++++++++.............",
".....++#+#+++#+#+++#+#+#+#+++++++++++&+&+++&+&+++&+&+&+&+++@......=+#+#+#+#+#+#+#+#+#+#+#+#+#+#+#+#+#+#+#+#+#+#+#+-.............",
".....++#++###+++###+++++#++++++++++++&++&&&+++&&&+++++&++++@....................................................................",
".....++++++++++++++++++++++++++++++++++++++++++++++++++++++@....................................................................",
".....++++++++++++++++++++++++++++++++++++++++++++++++++++++@......#+#+#+#+#+#+#+#+#+#+#+#+#+#+#+#+#+#+#+#+#+#+#+#+-.............",
".....++++++++++++++++++++++++++++++++++++++++++++++++++++++@......#+#+#+#+#+#+#+#+#+#+#+#+#+#+#+#+#+#+#+#+#+#+#+#+-.............",
"....@@@@@@@@@@@@@@@@@@@@@@@@@@@@@@@@@@@@@@@@@@@@@@@@@@@@@@@@......#+#+#+#+#+#+#+#+#+#+#+#+#+#+#+#+#+#+#+#+#+#+#+#+-.............",
"..................................................................#+#+#+#+#+#+#+#+#+#+#+#+#+#+#+#+#+#+#+#+#+#+#+#+-.............",
"..................................................................#+#+#+#+#+#+#+#+#+#+#+#+#+#+#+#+#+#+#+#+#+#+#+#+-.............",
"..................................................................#+#+#+#+#+#+#+#+#+#+#+#+#+#+#+#+#+#+#+#+#+#+#+#+-.............",
".....;;;;;;;;;;;;>@..++++++++++++++++++++++@.+;;;;;;;;;;;;>@......#+#+#+#+#+#+#+#+#+#+#+#+#+#+#+#+#+#+#+#+#+#+#+#+-.............",
".....;,,,,,,,,,,'.@..++####++++++++++++++++@.+;',,,,,,,,,,.@......+++++++++++++++++++++++++++++++++++++++++++++++++.............",
".....;,,,,,,.,,,'.@..+#++++#+++++++++++++++@.+;',,,.,,,,,,.@......=+#+#+#+#+#+#+#+#+#+#+#+#+#+#+#+#+#+#+#+#+#+#+#+-.............",
".....;,,,,,..,,,'.@..+#++++#+++++++++++++++@.+;',,,..,,,,,.@....................................................................",
".....;,,,,...,,,'.@..+#++++#+++++++++++++++@.+;',,,...,,,,.@......=+=+=+=+=+=+)+)+)+)+)+)+)+)+)+)+)+-+-+-+-+-+-+-+-.............",
".....;,,,....,,,'.@..+&&&&&&+++++++++++++++@.+;',,,....,,,.@......=+=+=+=+=+=+)+)+)+)+)+)+)+)+)+)+)+-+-+-+-+-+-+-+-.............",
".....;,,,,...,,,'.@..+#++++#+++++++++++++++@.+;',,,...,,,,.@......=+=+=+=+=+=+)+)+)+)+)+)+)+)+)+)+)+-+-+-+-+-+-+-+-.............",
".....;,,,,,..,,,'.@..+#++++#+++++++++++++++@.+;',,,..,,,,,.@......=+=+=+=+=+=+)+)+)+)+)+)+)+)+)+)+)+-+-+-+-+-+-+-+-.............",
".....;,,,,,,.,,,'.@..+#++++#+++++++++++++++@.+;',,,.,,,,,,.@......=+=+=+=+=+=+)+)+)+)+)+)+)+)+)+)+)+-+-+-+-+-+-+-+-.............",
".....;,,,,,,,,,,'.@..++####++++++++++++++++@.+;',,,,,,,,,,.@......=+=+=+=+=+=+)+)+)+)+)+)+)+)+)+)+)+-+-+-+-+-+-+-+-.............",
".....>............@..++++++++++++++++++++++@.+>............@......=+=+=+=+=+=+)+)+)+)+)+)+)+)+)+)+)+-+-+-+-+-+-+-+-.............",
"....@@@@@@@@@@@@@@@.@@@@@@@@@@@@@@@@@@@@@@@@.@@@@@@@@@@@@@@@......+++++++++++++++++++++++++++++++++++++++++++++++++.............",
"..................................................................=+#+#+#+#+#+#+#+#+#+#+#+#+#+#+#+#+#+#+#+#+#+#+#+-.............",
"................................................................................................................................",
".......................................................................+++++++++++++++++++++++++++++++++++++++++++++............",
".......................................................................+++++++++++++++++++++++++++++++++++++++++++++............",
".......................................................................+++++++++++++++++++++++++++++++++++++++++++++............",
".......................................................................+++++++++++++++++++++++++++++++++++++++++++++............",
".......................................................................+++++++++++++++++++++++++++++++++++++++++++++............",
".......................................................................+++++++++++++++++++++++++++++++++++++++++++++............",
".......................................................................+++++&&++++&&++++&&++++++==++++))++++--++++++............",
".......................................................................++++&+&&++&+&&++&+&&++++=;==++);))++-;--+++++............",
".......................................................................++++&&&&++&&&&++&&&&++++====++))))++----+++++............",
".......................................................................+++++&&++++&&++++&&++++++==++++))++++--++++++............",
".......................................................................+++++++++++++++++++++++++++++++++++++++++++++............",
".......................................................................+++++++++++++++++++++++++++++++++++++++++++++............",
".......................................................................+++++++++++++++++++++++++++++++++++++++++++++............",
".......................................................................+++++++++++++++++++++++++++++++++++++++++++++............",
".......................................................................+++++++++++++++++++++++++++++++++++++++++++++............",
".......................................................................+++++++++++++++++++++++++++++++++++++++++++++............",
"................................................................................................................................",
"................................................................................................................................",
"....++++++++++++++++++++++++++++++++++++++++++++++++++++++++++++++++++++++.+++++++++++++++++++++................................",
"....++###+++&&&&+&###&+&###&+&&&&&+&###&+&###&+&###&+&###&+&###&++#+++++++.+&++&&&+++&&&+++&++++................................",
"....+#+++#+&+++#+&+++#+&+++#+#+++#+#+++&+#+++&+&+++#+#+++#+#+++#+#+#+#++++.+&+&+++&+&+++&+&+&+&+................................",
"....+#+++#+&+++#+&+++#+&+++#+#+++#+#+++&+#+++&+&+++#+#+++#+#+++#++#+#+++#+.+&+&+++&+&+++&++&+&++................................",
"....+&&&&&++&&&&+&###&++###&+&###&+&###&+&###&++&&&&+&###&+&###&+++#++++++.+&+&&&&&+&&&&&+++&+++................................",
"....+#+++#+&+++#+#+++&+&+++#+&+++#+&+++#+#+++#+&+++#+#+++#+&+++#++#+#+++++.+&+&+++&+&+++&++&+&++................................",
"....+#+++#+&+++#+#+++&+&+++#+&+++#+&+++#+#+++#+&+++#+#+++#+&+++#+#+#+#++#+.+&+&+++&+&+++&+&+&+&+................................",
"....++###+++&&&#+&###&+&###&++&&&&+&###&+&###&++&&&&+&###&+&###&++++#+++++.+&++&&&+++&&&+++++&++................................",
"....++++++++++++++++++++++++++++++++++++++++++++++++++++++++++++++++++++++.+++++++++++++++++++++................................",
"................................................................................................................................",
"................................................................................................................................",
"................................................................................................................................",
"....++++++++++++++++++++++++++++++++++++++++++++++++++++++++++++++++++++++++++++..++++++++++++++++++++++++++++++++++++++++++++..",
"....++####+++&&&&&+&####&+&####&+&&&&&&+&####&+&####&+&####&+&####&+&####&++++++..++++++++####++++####+++++++++####++++####+++..",
"....+#++++#+&++++#+&++++#+&++++#+#++++#+#++++&+#++++&+&++++#+#++++#+#++++#++&#++..+++++++#++++#++#++++#+++&#++#++++#++#++++#++..",
"....+#++++#+&++++#+&++++#+&++++#+#++++#+#++++&+#++++&+&++++#+#++++#+#++++#++&#++..+++#+++#++++#++#++++#+++&#++#++++#++#++++#++..",
"....+#++++#+&++++#+&++++#+&++++#+#++++#+#++++&+#++++&+&++++#+#++++#+#++++#++++++..+++#+++#++++#++#++++#+++++++#++++#++#++++#++..",
"....+&&&&&&++&&&&&+&####&+&####&+&####&+&####&+&####&++&&&&&+&####&+&####&++++++..+#####+&&&&&&++&&&&&&+++++++&&&&&&++&&&&&&++..",
"....+#++++#+&++++#+#++++&+&++++#+&++++#+&++++#+#++++#+&++++#+#++++#+&++++#++++++..+++#+++#++++#++#++++#+++++++#++++#++#++++#++..",
"....+#++++#+&++++#+#++++&+&++++#+&++++#+&++++#+#++++#+&++++#+#++++#+&++++#++&#++..+++#+++#++++#++#++++#+++&#++#++++#++#++++#++..",
"....+#++++#+&++++#+#++++&+&++++#+&++++#+&++++#+#++++#+&++++#+#++++#+&++++#++&#++..+++++++#++++#++#++++#+++&#++#++++#++#++++#++..",
"....++####+++&&&&&+&####&+&####&++&&&&&+&####&+&####&++&&&&&+&####&+&####&++++++..++++++++####++++####+++++++++####++++####+++..",
"....++++++++++++++++++++++++++++++++++++++++++++++++++++++++++++++++++++++++++++..++++++++++++++++++++++++++++++++++++++++++++..",
"................................................................................................................................",
"................................................................................................................................",
"....++++++++++++++++++++++++++++++++...++++++++++++++++++++++++++++++++...........++++++++++++++++++++++++++++++++++++++++++++..",
"....+............>+++............>++...+++;;;;;;;;;;;;>++;;;;;;;;;;;;>+...........++++++++&&&&++++&&&&+++++++++&&&&++++&&&&+++..",
"....+.,,,,,,,,,,';+++.',,,,,,,,,,;++...+++;,,,,,,,,,,'.++;',,,,,,,,,,.+...........+++++++&++++&++&++++&+++&#++&++++&++&++++&++..",
"....+.,,,,,,.,,,';+++.',,,.,,,,,,;++...+++;,,,,,,.,,,'.++;',,,.,,,,,,.+...........+++++++&++++&++&++++&+++&#++&++++&++&++++&++..",
"....+.,,,,,..,,,';+++.',,,..,,,,,;++...+++;,,,,,..,,,'.++;',,,..,,,,,.+...........+++++++&++++&++&++++&+++++++&++++&++&++++&++..",
"....+.,,,,...,,,';+++.',,,...,,,,;++...+++;,,,,...,,,'.++;',,,...,,,,.+...........+#####+&####&++&####&+++++++&####&++&####&++..",
"....+.,,,....,,,';+++.',,,....,,,;++...+++;,,,....,,,'.++;',,,....,,,.+...........+++++++&++++&++&++++&+++++++&++++&++&++++&++..",
"....+.,,,,...,,,';+++.',,,...,,,,;++...+++;,,,,...,,,'.++;',,,...,,,,.+...........+++++++&++++&++&++++&+++&#++&++++&++&++++&++..",
"....+.,,,,,..,,,';+++.',,,..,,,,,;++...+++;,,,,,..,,,'.++;',,,..,,,,,.+...........+++++++&++++&++&++++&+++&#++&++++&++&++++&++..",
"....+.,,,,,,.,,,';+++.',,,.,,,,,,;++...+++;,,,,,,.,,,'.++;',,,.,,,,,,.+...........++++++++&&&&++++&&&&+++++++++&&&&++++&&&&+++..",
"....+.,,,,,,,,,,';+++.',,,,,,,,,,;++...+++;,,,,,,,,,,'.++;',,,,,,,,,,.+...........++++++++++++++++++++++++++++++++++++++++++++..",
"....+>;;;;;;;;;;;;+++>;;;;;;;;;;;;++...+++>............++>............+.........................................................",
"....++++++++++++++++++++++++++++++++...++++++++++++++++++++++++++++++++.........................................................",
"....++++++++++++++++++++++++++++++++...++++++++++++++++++++++++++++++++.........................................................",
"................................................................................................................................"};
