/* XPM */
static char * wmnut_master_LowColor[] = {
"129 144 16 1",
" 	c #000000",
".	c #3B0100",
"+	c #272826",
"@	c #EC0001",
"#	c #2D3C00",
"$	c #024458",
"%	c #FF1000",
"&	c #066B8F",
"*	c #6D8091",
"=	c #00B1EA",
"-	c #A8AAA7",
";	c #34EF00",
">	c #FFB400",
",	c #D2D4D1",
"'	c #ECEA00",
")	c #F7F7FF",
"*********************************************************************************************************************************",
"*********************************************************************************************************************************",
"*********************************************************************************************************************************",
"*********************************************************************************************************************************",
"****                                                        *********************************************************************",
"**** ++++++++++++++++++++++++++++++++++++++++++++++++++++++,******++++++++++++++++++++++++++++++*++++++++++++++++++++************",
"**** ++++++++++++++++++++++++++++++++++++++++++++++++++++++,******+++++++;;;;;+++++;;;;;;;;;;+++*++@@@+++;;;+++$$$+++************",
"**** ++;;;++++++++++++====++++====+++++++++====++++====++++,******++++++;++++;;;+++;++++++++;+++*+@+++@+;+++;+$+++$++************",
"**** +;+++;++++++++++=++++=++=++++=+++&=++=++++=++=++++=+++,******++++++;++++;+++++;++++++++;;++*+@+++++;+++++$++++++************",
"**** +;++++++++++=+++=++++=++=++++=+++&=++=++++=++=++++=+++,******++++;;;++++;+++++;++++++++;;++*+@+++++;+++++$++++++************",
"**** +;++++++++++=+++=++++=++=++++=+++++++=++++=++=++++=+++,******+++;++;++++;;;+++;++++++++;;++*+@+++++;+++++$++++++************",
"**** +;++++++++=====+&$$$$&++&$$$$&+++++++&$$$$&++&$$$$&+++,******+++;+++;;;;;+++++;++++++++;+++*+@+++@+;+++;+$+++$++************",
"**** +;+++;++++++=+++=++++=++=++++=+++++++=++++=++=++++=+++,******+++;+++++++++++++;;;;;;;;;;+++*++@@@+++;;;+++$$$+++************",
"**** ++;;;+++++++=+++=++++=++=++++=+++&=++=++++=++=++++=+++,******++++++++++++++++++++++++++++++*++++++++++++++++++++************",
"**** ++++++++++++++++=++++=++=++++=+++&=++=++++=++=++++=+++,******++++++++++++++++++++++++++++++*********************************",
"**** +++++++++++++++++====++++====+++++++++====++++====++++,*********************************************************************",
"**** ++$$$+$+$+$+$+++++++++++++++++++++++++++++++++++++++++,*********************************************************************",
"**** ++$+$+$+$+$$+$++++++++++++++++++++++++++++++++++++++++,*********************************************************************",
"**** ++$$$+$+$+$+++++++++++++++++++++++++++++++++++++++++++,*********************************************************************",
"**** ++$+$++$++$+++++++++++++++++++++++++++++++++++++++++++,******++++++++++++++++++++++++++++++*++++++++++++++*++++++++++++++***",
"**** ++++++++++++++++++++++++++++++++++++++++++++++++++++++,******+++''''''''''++++@@@@@@@@@@+++*++$$$$$$$$$$++*++@@@@@@@@@@++***",
"**** ++=+=+=+=+=+=+=+=+=+=+=+=+=+=+=+=+=+=+=+=+=+=+=+=+=+++,******+++'++++++++'++++@++++++++@+++*++$++++++++$++*++@)@@@)@)@@++***",
"**** ++=+=+=+=+=+=+=+=+=+=+=+=+=+=+=+=+=+=+=+=+=+=+=+=+=+++,******+++'++++++++''+++@++++++++@@++*++$++++++++$$+*++@@)@)@@)@@@+***",
"**** ++=+=+=+=+=+=+=+=+=+=+=+=+=+=+=+=+=+=+=+=+=+=+=+=+=+++,******+++'++++++++''+++@++++++++@@++*++$++++++++$$+*++@@@)@@@)@@@+***",
"**** ++=+=+=+=+=+=+=+=+=+=+=+=+=+=+=+=+=+=+=+=+=+=+=+=+=+++,******+++'++++++++''+++@++++++++@@++*++$++++++++$$+*++@@)@)@@@@@@+***",
"**** ++=+=+=+=+=+=+=+=+=+=+=+=+=+=+=+=+=+=+=+=+=+=+=+=+=+++,******+++'++++++++'++++@++++++++@+++*++$++++++++$++*++@)@@@)@)@@++***",
"**** ++=+=+=+=+=+=+=+=+=+=+=+=+=+=+=+=+=+=+=+=+=+=+=+=+=+++,******+++''''''''''++++@@@@@@@@@@+++*++$$$$$$$$$$++*++@@@@@@@@@@++***",
"**** ++=+=+=+=+=+=+=+=+=+=+=+=+=+=+=+=+=+=+=+=+=+=+=+=+=+++,******++++++++++++++++++++++++++++++*++++++++++++++*++++++++++++++***",
"**** ++++++++++++++++++++++++++++++++++++++++++++++++++++++,******++++++++++++++++++++++++++++++*++++++++++++++*++++++++++++++***",
"**** ++@+=+=+=+=+=+=+=+=+=+=+=+=+=+=+=+=+=+=+=+=+=+=+=+;+++,*********************************************************************",
"**** ++++++++++++++++++++++++++++++++++++++++++++++++++++++,*********************************************************************",
"**** ++++++++++++++++++++++++++++++++++++++++++++++++++++++,******$+$+$+$+$+$+$+$+$+$+$+$+$+$+$+$+$+$+$+$+$+$+$+$+$**************",
"**** ++++++++++++++++++++++++++++++++++++++++++++++++++++++,******$+$+$+$+$+$+$+$+$+$+$+$+$+$+$+$+$+$+$+$+$+$+$+$+$**************",
"**** ++++++++++++++++++++++++++++++++++++++++++++++++++++++,******$+$+$+$+$+$+$+$+$+$+$+$+$+$+$+$+$+$+$+$+$+$+$+$+$**************",
"**** ++&++===+++===+++=++++++++++++++$++$$$+++$$$+++$++++++,******$+$+$+$+$+$+$+$+$+$+$+$+$+$+$+$+$+$+$+$+$+$+$+$+$**************",
"**** ++=+=+++=+=+++=+=+=+=+++++++++++$+$+++$+$+++$+$+$+$+++,******$+$+$+$+$+$+$+$+$+$+$+$+$+$+$+$+$+$+$+$+$+$+$+$+$**************",
"**** ++=+=+++=+=+++=++=+=++++++++++++$+$+++$+$+++$++$+$++++,******$+$+$+$+$+$+$+$+$+$+$+$+$+$+$+$+$+$+$+$+$+$+$+$+$**************",
"**** ++&+&$$$&+&$$$&+++=+++++++++++++$+$$$$$+$$$$$+++$+++++,******$+$+$+$+$+$+$+$+$+$+$+$+$+$+$+$+$+$+$+$+$+$+$+$+$**************",
"**** ++=+=+++=+=+++=++=+=++++++++++++$+$+++$+$+++$++$+$++++,******+++++++++++++++++++++++++++++++++++++++++++++++++**************",
"**** ++=+=+++=+=+++=+=+=+=+++++++++++$+$+++$+$+++$+$+$+$+++,******@+=+=+=+=+=+=+=+=+=+=+=+=+=+=+=+=+=+=+=+=+=+=+=+;**************",
"**** ++=++===+++===+++++=++++++++++++$++$$$+++$$$+++++$++++,*********************************************************************",
"**** ++++++++++++++++++++++++++++++++++++++++++++++++++++++,*********************************************************************",
"**** ++++++++++++++++++++++++++++++++++++++++++++++++++++++,******=+=+=+=+=+=+=+=+=+=+=+=+=+=+=+=+=+=+=+=+=+=+=+=+;**************",
"**** ++++++++++++++++++++++++++++++++++++++++++++++++++++++,******=+=+=+=+=+=+=+=+=+=+=+=+=+=+=+=+=+=+=+=+=+=+=+=+;**************",
"****,,,,,,,,,,,,,,,,,,,,,,,,,,,,,,,,,,,,,,,,,,,,,,,,,,,,,,,,******=+=+=+=+=+=+=+=+=+=+=+=+=+=+=+=+=+=+=+=+=+=+=+=+;**************",
"******************************************************************=+=+=+=+=+=+=+=+=+=+=+=+=+=+=+=+=+=+=+=+=+=+=+=+;**************",
"******************************************************************=+=+=+=+=+=+=+=+=+=+=+=+=+=+=+=+=+=+=+=+=+=+=+=+;**************",
"****               *                        *               ******=+=+=+=+=+=+=+=+=+=+=+=+=+=+=+=+=+=+=+=+=+=+=+=+;**************",
"**** ))))))))))))-,* ++++++++++++++++++++++,*+))))))))))))-,******=+=+=+=+=+=+=+=+=+=+=+=+=+=+=+=+=+=+=+=+=+=+=+=+;**************",
"**** )----------- ,* ++====++++++++++++++++,*+)----------- ,******+++++++++++++++++++++++++++++++++++++++++++++++++**************",
"**** )------ ---- ,* +=++++=+++++++++++++++,*+)---- ------ ,******@+=+=+=+=+=+=+=+=+=+=+=+=+=+=+=+=+=+=+=+=+=+=+=+;**************",
"**** )-----  ---- ,* +=++++=+++++++++++++++,*+)----  ----- ,*********************************************************************",
"**** )----   ---- ,* +=++++=+++++++++++++++,*+)----   ---- ,******%+%+%+%+%+>+>+>+>+>+'+'+'+'+'+'+'+'+'+;+;+;+;+;+;**************",
"**** )---    ---- ,* +&$$$$&+++++++++++++++,*+)----    --- ,******%+%+%+%+%+>+>+>+>+>+'+'+'+'+'+'+'+'+'+;+;+;+;+;+;**************",
"**** )----   ---- ,* +=++++=+++++++++++++++,*+)----   ---- ,******%+%+%+%+%+>+>+>+>+>+'+'+'+'+'+'+'+'+'+;+;+;+;+;+;**************",
"**** )-----  ---- ,* +=++++=+++++++++++++++,*+)----  ----- ,******%+%+%+%+%+>+>+>+>+>+'+'+'+'+'+'+'+'+'+;+;+;+;+;+;**************",
"**** )------ ---- ,* +=++++=+++++++++++++++,*+)---- ------ ,******%+%+%+%+%+>+>+>+>+>+'+'+'+'+'+'+'+'+'+;+;+;+;+;+;**************",
"**** )----------- ,* ++====++++++++++++++++,*+)----------- ,******%+%+%+%+%+>+>+>+>+>+'+'+'+'+'+'+'+'+'+;+;+;+;+;+;**************",
"**** -            ,* ++++++++++++++++++++++,*+-            ,******%+%+%+%+%+>+>+>+>+>+'+'+'+'+'+'+'+'+'+;+;+;+;+;+;**************",
"****,,,,,,,,,,,,,,,*,,,,,,,,,,,,,,,,,,,,,,,,*,,,,,,,,,,,,,,,******+++++++++++++++++++++++++++++++++++++++++++++++++**************",
"******************************************************************@+=+=+=+=+=+=+=+=+=+=+=+=+=+=+=+=+=+=+=+=+=+=+=+;**************",
"*********************************************************************************************************************************",
"*********************************************************************************************************************************",
"****************************************************************************++++++++++++++*++++++++++++++*++++++++++++++*********",
"****************************************************************************++++++'''''+++*++++++@@@@@+++*++----------++*********",
"****************************************************************************+++++'++++'''+*+++++@++++@@@+*++-++++++++-++*********",
"****************************************************************************+++++'++++'+++*+++++@++++@+++*++-+)+++)++--+*********",
"****************************************************************************+++'''++++'+++*+++@@@++++@+++*++-+)+)+)+)--+*********",
"****************************************************************************++'++'++++'''+*++@++@++++@@@+*++-+)+)+)+)--+*********",
"****++++++++++++++++++++++++++++++++++++++++++++++++++++++++++++++++++++++**++'+++'''''+++*++@+++@@@@@+++*++-++++++++-++*********",
"****++%%%+++$$$%+%%%%%+%%%%%+%$$$%+%%%%%+%%%%%+%%%%%+%%%%%+%%%%%++%+++++++**++'+++++++++++*++@+++++++++++*++----------++*********",
"****+%+++%+$+++%+$+++%+$+++%+%+++%+%+++$+%+++$+$+++%+%+++%+%+++%+%+%+%++++**++++++++++++++*++++++++++++++*++++++++++++++*********",
"****+%+++%+$+++%+$+++%+$+++%+%+++%+%+++$+%+++$+$+++%+%+++%+%+++%++%+%+++%+********************************++++++++++++++*********",
"****+%$$$%++$$$%+%%%%%++%%%%+%%%%%+%%%%%+%%%%%++$$$%+%%%%%+%%%%%+++%++++++**++++++++++++++*++++++++++++++************************",
"****+%+++%+$+++%+%+++$+$+++%+$+++%+$+++%+%+++%+$+++%+%+++%+$+++%++%+%+++++**+$$$+$+$+$+$++*+===+=+=+=+=++************************",
"****+%+++%+$+++%+%+++$+$+++%+$+++%+$+++%+%+++%+$+++%+%+++%+$+++%+%+%+%++%+**+$+$+$+$+$$+$+*+=+=+=+=+==+=+************************",
"****++%%%+++$$$%+%%%%%+%%%%%++$$$%+%%%%%+%%%%%++$$$%+%%%%%+%%%%%++++%+++++**+$$$+$+$+$++++*+===+=+=+=++++************************",
"****++++++++++++++++++++++++++++++++++++++++++++++++++++++++++++++++++++++**+$+$++$++$++++*+=+=++=++=++++************************",
"****************************************************************************++++++++++++++*++++++++++++++************************",
"*********************************************************************************************************************************",
"****++++++++++++++++++++++++++++++++++++++++++++++++++++++++++++++++++++++*+++++++++++++++++++++*+++++++++++++++++++++***********",
"****++===+++$$$&+&===&+&===&+&$$$&+&===&+&===&+&===&+&===&+&===&++=+++++++*+$++$$$+++$$$+++$++++*+$++$$$+++$$$++++++++***********",
"****+=+++=+$+++=+$+++=+$+++=+=+++=+=+++$+=+++$+$+++=+=+++=+=+++=+=+=+=++++*+$+$+++$+$+++$+$+$+$+*+$+$+++$+$+++$+++++++***********",
"****+=+++=+$+++=+$+++=+$+++=+=+++=+=+++$+=+++$+$+++=+=+++=+=+++=++=+=+++=+*+$+$+++$+$+++$++$+$++*+$+$+++$+$+++$+++++++***********",
"****+&$$$&++$$$&+&===&++===&+&===&+&===&+&===&++$$$&+&===&+&===&+++=++++++*+$+$$$$$+$$$$$+++$+++*+$+$$$$$+$$$$$+++++++***********",
"****+=+++=+$+++=+=+++$+$+++=+$+++=+$+++=+=+++=+$+++=+=+++=+$+++=++=+=+++++*+$+$+++$+$+++$++$+$++*+$+$+++$+$+++$+++++++***********",
"****+=+++=+$+++=+=+++$+$+++=+$+++=+$+++=+=+++=+$+++=+=+++=+$+++=+=+=+=++=+*+$+$+++$+$+++$+$+$+$+*+$+$+++$+$+++$+++++++***********",
"****++===+++$$$=+&===&+&===&++$$$&+&===&+&===&++$$$&+&===&+&===&++++=+++++*+$++$$$+++$$$+++++$++*+$++$$$+++$$$++++++++***********",
"****++++++++++++++++++++++++++++++++++++++++++++++++++++++++++++++++++++++*+++++++++++++++++++++*+++++++++++++++++++++***********",
"*********************************************************************************************************************************",
"*********************************************************************************************************************************",
"*********************************************************************************************************************************",
"****++++++++++++++++++++++++++++++++++++++++++++++++++++++++++++++++++++++++++++**++++++++++++++++++++++++++++++++++++++++++++***",
"****++====+++$$$$&+&====&+&====&+&$$$$&+&====&+&====&+&====&+&====&+&====&++++++**++++++++====++++====+++++++++====++++====+++***",
"****+=++++=+$++++=+$++++=+$++++=+=++++=+=++++$+=++++$+$++++=+=++++=+=++++=++&=++**+++++++=++++=++=++++=+++&=++=++++=++=++++=++***",
"****+=++++=+$++++=+$++++=+$++++=+=++++=+=++++$+=++++$+$++++=+=++++=+=++++=++&=++**+++=+++=++++=++=++++=+++&=++=++++=++=++++=++***",
"****+=++++=+$++++=+$++++=+$++++=+=++++=+=++++$+=++++$+$++++=+=++++=+=++++=++++++**+++=+++=++++=++=++++=+++++++=++++=++=++++=++***",
"****+&$$$$&++$$$$&+&====&+&====&+&====&+&====&+&====&++$$$$&+&====&+&====&++++++**+=====+&$$$$&++&$$$$&+++++++&$$$$&++&$$$$&++***",
"****+=++++=+$++++=+=++++$+$++++=+$++++=+$++++=+=++++=+$++++=+=++++=+$++++=++++++**+++=+++=++++=++=++++=+++++++=++++=++=++++=++***",
"****+=++++=+$++++=+=++++$+$++++=+$++++=+$++++=+=++++=+$++++=+=++++=+$++++=++&=++**+++=+++=++++=++=++++=+++&=++=++++=++=++++=++***",
"****+=++++=+$++++=+=++++$+$++++=+$++++=+$++++=+=++++=+$++++=+=++++=+$++++=++&=++**+++++++=++++=++=++++=+++&=++=++++=++=++++=++***",
"****++====+++$$$$&+&====&+&====&++$$$$&+&====&+&====&++$$$$&+&====&+&====&++++++**++++++++====++++====+++++++++====++++====+++***",
"****++++++++++++++++++++++++++++++++++++++++++++++++++++++++++++++++++++++++++++**++++++++++++++++++++++++++++++++++++++++++++***",
"*********************************************************************************************************************************",
"*********************************************************************************************************************************",
"****++++++++++++++++++++++++++++++++***++++++++++++++++++++++++++++++++***********++++++++++++++++++++++++++++++++++++++++++++***",
"****+            -+++            -++***+++))))))))))))-++))))))))))))-+***********++++++++$$$$++++$$$$+++++++++$$$$++++$$$$+++***",
"****+ -----------)+++ -----------)++***+++)----------- ++)----------- +***********+++++++$++++$++$++++$+++&=++$++++$++$++++$++***",
"****+ ------ ----)+++ ---- ------)++***+++)------ ---- ++)---- ------ +***********+++++++$++++$++$++++$+++&=++$++++$++$++++$++***",
"****+ -----  ----)+++ ----  -----)++***+++)-----  ---- ++)----  ----- +***********+++++++$++++$++$++++$+++++++$++++$++$++++$++***",
"****+ ----   ----)+++ ----   ----)++***+++)----   ---- ++)----   ---- +***********+=====+&====&++&====&+++++++&====&++&====&++***",
"****+ ---    ----)+++ ----    ---)++***+++)---    ---- ++)----    --- +***********+++++++$++++$++$++++$+++++++$++++$++$++++$++***",
"****+ ----   ----)+++ ----   ----)++***+++)----   ---- ++)----   ---- +***********+++++++$++++$++$++++$+++&=++$++++$++$++++$++***",
"****+ -----  ----)+++ ----  -----)++***+++)-----  ---- ++)----  ----- +***********+++++++$++++$++$++++$+++&=++$++++$++$++++$++***",
"****+ ------ ----)+++ ---- ------)++***+++)------ ---- ++)---- ------ +***********++++++++$$$$++++$$$$+++++++++$$$$++++$$$$+++***",
"****+ -----------)+++ -----------)++***+++)----------- ++)----------- +***********++++++++++++++++++++++++++++++++++++++++++++***",
"****+-))))))))))))+++-))))))))))))++***+++-            ++-            +**********************************************************",
"****++++++++++++++++++++++++++++++++***++++++++++++++++++++++++++++++++**********************************************************",
"****++++++++++++++++++++++++++++++++***++++++++++++++++++++++++++++++++***********++++++++++++++++++++++++++++++++++++++++++++***",
"**********************************************************************************++++++++++++++++++++++++++++++++++++++++++++***",
"**********************************************************************************++++++++++++++++++++++++++++++++++++++++++++***",
"****++++++++++++++++++++++++++++++++++++++++++++++++++++++++++++++++++++++********++++++++++++++++++++++++++++++++++++++++++++***",
"****++'''+++$$$'+'''''+'''''+'$$$'+'''''+'''''+'''''+'''''+'''''++'+++++++********++++++++++++++++++++++++++++++++++++++++++++***",
"****+'+++'+$+++'+$+++'+$+++'+'+++'+'+++$+'+++$+$+++'+'+++'+'+++'+'+'+'++++********++++++++++++++++++++++++++++++++++++++++++++***",
"****+'+++'+$+++'+$+++'+$+++'+'+++'+'+++$+'+++$+$+++'+'+++'+'+++'++'+'+++'+********++++..++++##++++##++++++@@++++''++++;;++++++***",
"****+'$$$'++$$$'+'''''++''''+'''''+'''''+'''''++$$$'+'''''+'''''+++'++++++********+++.+..++#+##++#+##++++@)@@++')''++;);;+++++***",
"****+'+++'+$+++'+'+++$+$+++'+$+++'+$+++'+'+++'+$+++'+'+++'+$+++'++'+'+++++********+++....++####++####++++@@@@++''''++;;;;+++++***",
"****+'+++'+$+++'+'+++$+$+++'+$+++'+$+++'+'+++'+$+++'+'+++'+$+++'+'+'+'++'+********++++..++++##++++##++++++@@++++''++++;;++++++***",
"****++'''+++$$$'+'''''+'''''++$$$'+'''''+'''''++$$$'+'''''+'''''++++'+++++********++++++++++++++++++++++++++++++++++++++++++++***",
"****++++++++++++++++++++++++++++++++++++++++++++++++++++++++++++++++++++++********++++++++++++++++++++++++++++++++++++++++++++***",
"**********************************************************************************++++++++++++++++++++++++++++++++++++++++++++***",
"****++++++++++++++*++++++++++++++*************************************************++++++++++++++++++++++++++++++++++++++++++++***",
"****++%%++%%++%%%+*++---+---+---+*+++++++++*+++++++++*****************************++++++++++++++++++++++++++++++++++++++++++++***",
"****++%++%++%+%+%+*++-+-+-+++-+++*+++++++++*+++++++++*****************************++++++++++++++++++++++++++++++++++++++++++++***",
"****++%++%++++%+%+*++-+-+-+++-+++*++%+%+%++*+++++++++****************************************************************************",
"****++%%++%%++%+%+*++-+-+---+---+*++%+%+%++*+++++++++****************************************************************************",
"****++%+++++%+%+%+*++-+-+-+++-+++*++%+%+%++*+++++++++****************************************************************************",
"****++%++%++%+%+%+*++-+-+-+++-+++*+++++++++*+++++++++****************************************************************************",
"****++%+++%%++%%%+*++---+-+++-+++*++%+%+%++*+++++++++****************************************************************************",
"****++++++++++++++*++++++++++++++*+++++++++*+++++++++****************************************************************************",
"****++++++++++++++*++++++++++++++*+++++++++*+++++++++****************************************************************************",
"*********************************************************************************************************************************",
"*********************************************************************************************************************************",
"*********************************************************************************************************************************"};
