/* XPM */
static char * wmnut_master[] = {
"128 120 43 1",
" 	c None",
".	c #708090",
"+	c #000000",
"@	c #282828",
"#	c #D3D3D3",
"$	c #00E500",
"%	c #E90000",
"&	c #00445A",
"*	c #00B0EA",
"=	c #006B8E",
"-	c #E9E900",
";	c #00FF00",
">	c #F7F7FF",
",	c #888888",
"'	c #A8A8A8",
")	c #B2B2B2",
"!	c #FF0000",
"~	c #FF2600",
"{	c #FF4C00",
"]	c #FF7200",
"^	c #FF9800",
"/	c #FFBD00",
"(	c #FFC500",
"_	c #FFCD00",
":	c #FFD500",
"<	c #FFDD00",
"[	c #FFE500",
"}	c #FFEA00",
"|	c #FFEF00",
"1	c #FFF400",
"2	c #FFFA00",
"3	c #FFFF00",
"4	c #DFFF00",
"5	c #BFFF00",
"6	c #9FFF00",
"7	c #7FFF00",
"8	c #5FFF00",
"9	c #3FFF00",
"0	c #1FFF00",
"a	c #3C0000",
"b	c #4C3C00",
"c	c #003900",
"d	c #48484A",
"................................................................................................................................",
"................................................................................................................................",
"................................................................................................................................",
"................................................................................................................................",
"....++++++++++++++++++++++++++++++++++++++++++++++++++++++++....................................................................",
"....+@@@@@@@@@@@@@@@@@@@@@@@@@@@@@@@@@@@@@@@@@@@@@@@@@@@@@@#......@@@@@@@@@@@@@@@@@@@@@@@@@@@@@@.@@@@@@@@@@@@@@@@@@@@...........",
"....+@@@@@@@@@@@@@@@@@@@@@@@@@@@@@@@@@@@@@@@@@@@@@@@@@@@@@@#......@@@@@@@$$$$$@@@@@$$$$$$$$$$@@@.@@%%%@@@$$$@@@&&&@@@...........",
"....+@@$$$@@@@@@@@@@@@****@@@@****@@@@@@@@@****@@@@****@@@@#......@@@@@@$@@@@$$$@@@$@@@@@@@@$@@@.@%@@@%@$@@@$@&@@@&@@...........",
"....+@$@@@$@@@@@@@@@@*@@@@*@@*@@@@*@@@=*@@*@@@@*@@*@@@@*@@@#......@@@@@@$@@@@$@@@@@$@@@@@@@@$$@@.@%@@@@@$@@@@@&@@@@@@...........",
"....+@$@@@@@@@@@@*@@@*@@@@*@@*@@@@*@@@=*@@*@@@@*@@*@@@@*@@@#......@@@@$$$@@@@$@@@@@$@@@@@@@@$$@@.@%@@@@@$@@@@@&@@@@@@...........",
"....+@$@@@@@@@@@@*@@@*@@@@*@@*@@@@*@@@@@@@*@@@@*@@*@@@@*@@@#......@@@$@@$@@@@$$$@@@$@@@@@@@@$$@@.@%@@@@@$@@@@@&@@@@@@...........",
"....+@$@@@@@@@@*****@=&&&&=@@=&&&&=@@@@@@@=&&&&=@@=&&&&=@@@#......@@@$@@@$$$$$@@@@@$@@@@@@@@$@@@.@%@@@%@$@@@$@&@@@&@@...........",
"....+@$@@@$@@@@@@*@@@*@@@@*@@*@@@@*@@@@@@@*@@@@*@@*@@@@*@@@#......@@@$@@@@@@@@@@@@@$$$$$$$$$$@@@.@@%%%@@@$$$@@@&&&@@@...........",
"....+@@$$$@@@@@@@*@@@*@@@@*@@*@@@@*@@@=*@@*@@@@*@@*@@@@*@@@#......@@@@@@@@@@@@@@@@@@@@@@@@@@@@@@.@@@@@@@@@@@@@@@@@@@@...........",
"....+@@@@@@@@@@@@@@@@*@@@@*@@*@@@@*@@@=*@@*@@@@*@@*@@@@*@@@#......@@@@@@@@@@@@@@@@@@@@@@@@@@@@@@................................",
"....+@@@@@@@@@@@@@@@@@****@@@@****@@@@@@@@@****@@@@****@@@@#....................................................................",
"....+@@@@@@@@@@@@@@@@@@@@@@@@@@@@@@@@@@@@@@@@@@@@@@@@@@@@@@#....................................................................",
"....+@@@@@@@@@@@@@@@@@@@@@@@@@@@@@@@@@@@@@@@@@@@@@@@@@@@@@@#....................................................................",
"....+@@@@@@@@@@@@@@@@@@@@@@@@@@@@@@@@@@@@@@@@@@@@@@@@@@@@@@#....................................................................",
"....+@@@@@@@@@@@@@@@@@@@@@@@@@@@@@@@@@@@@@@@@@@@@@@@@@@@@@@#......@@@@@@@@@@@@@@@@@@@@@@@@@@@@@@.@@@@@@@@@@@@@@.................",
"....+@@@@@@@@@@@@@@@@@@@@@@@@@@@@@@@@@@@@@@@@@@@@@@@@@@@@@@#......@@@----------@@@@%%%%%%%%%%@@@.@@&&&&&&&&&&@@.................",
"....+@@*@*@*@*@*@*@*@*@*@*@*@*@*@*@*@*@*@*@*@*@*@*@*@*@*@@@#......@@@-@@@@@@@@-@@@@%@@@@@@@@%@@@.@@&@@@@@@@@&@@.................",
"....+@@*@*@*@*@*@*@*@*@*@*@*@*@*@*@*@*@*@*@*@*@*@*@*@*@*@@@#......@@@-@@@@@@@@--@@@%@@@@@@@@%%@@.@@&@@@@@@@@&&@.................",
"....+@@*@*@*@*@*@*@*@*@*@*@*@*@*@*@*@*@*@*@*@*@*@*@*@*@*@@@#......@@@-@@@@@@@@--@@@%@@@@@@@@%%@@.@@&@@@@@@@@&&@.................",
"....+@@*@*@*@*@*@*@*@*@*@*@*@*@*@*@*@*@*@*@*@*@*@*@*@*@*@@@#......@@@-@@@@@@@@--@@@%@@@@@@@@%%@@.@@&@@@@@@@@&&@.................",
"....+@@*@*@*@*@*@*@*@*@*@*@*@*@*@*@*@*@*@*@*@*@*@*@*@*@*@@@#......@@@-@@@@@@@@-@@@@%@@@@@@@@%@@@.@@&@@@@@@@@&@@.................",
"....+@@*@*@*@*@*@*@*@*@*@*@*@*@*@*@*@*@*@*@*@*@*@*@*@*@*@@@#......@@@----------@@@@%%%%%%%%%%@@@.@@&&&&&&&&&&@@.................",
"....+@@*@*@*@*@*@*@*@*@*@*@*@*@*@*@*@*@*@*@*@*@*@*@*@*@*@@@#......@@@@@@@@@@@@@@@@@@@@@@@@@@@@@@.@@@@@@@@@@@@@@.................",
"....+@@@@@@@@@@@@@@@@@@@@@@@@@@@@@@@@@@@@@@@@@@@@@@@@@@@@@@#......@@@@@@@@@@@@@@@@@@@@@@@@@@@@@@.@@@@@@@@@@@@@@.................",
"....+@@%@*@*@*@*@*@*@*@*@*@*@*@*@*@*@*@*@*@*@*@*@*@*@*@;@@@#....................................................................",
"....+@@@@@@@@@@@@@@@@@@@@@@@@@@@@@@@@@@@@@@@@@@@@@@@@@@@@@@#....................................................................",
"....+@@@@@@@@@@@@@@@@@@@@@@@@@@@@@@@@@@@@@@@@@@@@@@@@@@@@@@#......&@&@&@&@&@&@&@&@&@&@&@&@&@&@&@&@&@&@&@&@&@&@&@&@&.............",
"....+@@@@@@@@@@@@@@@@@@@@@@@@@@@@@@@@@@@@@@@@@@@@@@@@@@@@@@#......&@&@&@&@&@&@&@&@&@&@&@&@&@&@&@&@&@&@&@&@&@&@&@&@&.............",
"....+@@@@@@@@@@@@@@@@@@@@@@@@@@@@@@@@@@@@@@@@@@@@@@@@@@@@@@#......&@&@&@&@&@&@&@&@&@&@&@&@&@&@&@&@&@&@&@&@&@&@&@&@&.............",
"....+@@=@@***@@@***@@@*@@@@@@@@@@@@@@&@@&&&@@@&&&@@@&@@@@@@#......&@&@&@&@&@&@&@&@&@&@&@&@&@&@&@&@&@&@&@&@&@&@&@&@&.............",
"....+@@*@*@@@*@*@@@*@*@*@*@@@@@@@@@@@&@&@@@&@&@@@&@&@&@&@@@#......&@&@&@&@&@&@&@&@&@&@&@&@&@&@&@&@&@&@&@&@&@&@&@&@&.............",
"....+@@*@*@@@*@*@@@*@@*@*@@@@@@@@@@@@&@&@@@&@&@@@&@@&@&@@@@#......&@&@&@&@&@&@&@&@&@&@&@&@&@&@&@&@&@&@&@&@&@&@&@&@&.............",
"....+@@=@=&&&=@=&&&=@@@*@@@@@@@@@@@@@&@&&&&&@&&&&&@@@&@@@@@#......&@&@&@&@&@&@&@&@&@&@&@&@&@&@&@&@&@&@&@&@&@&@&@&@&.............",
"....+@@*@*@@@*@*@@@*@@*@*@@@@@@@@@@@@&@&@@@&@&@@@&@@&@&@@@@#......@@@@@@@@@@@@@@@@@@@@@@@@@@@@@@@@@@@@@@@@@@@@@@@@@.............",
"....+@@*@*@@@*@*@@@*@*@*@*@@@@@@@@@@@&@&@@@&@&@@@&@&@&@&@@@#......%@*@*@*@*@*@*@*@*@*@*@*@*@*@*@*@*@*@*@*@*@*@*@*@;.............",
"....+@@*@@***@@@***@@@@@*@@@@@@@@@@@@&@@&&&@@@&&&@@@@@&@@@@#....................................................................",
"....+@@@@@@@@@@@@@@@@@@@@@@@@@@@@@@@@@@@@@@@@@@@@@@@@@@@@@@#....................................................................",
"....+@@@@@@@@@@@@@@@@@@@@@@@@@@@@@@@@@@@@@@@@@@@@@@@@@@@@@@#......*@*@*@*@*@*@*@*@*@*@*@*@*@*@*@*@*@*@*@*@*@*@*@*@;.............",
"....+@@@@@@@@@@@@@@@@@@@@@@@@@@@@@@@@@@@@@@@@@@@@@@@@@@@@@@#......*@*@*@*@*@*@*@*@*@*@*@*@*@*@*@*@*@*@*@*@*@*@*@*@;.............",
"....########################################################......*@*@*@*@*@*@*@*@*@*@*@*@*@*@*@*@*@*@*@*@*@*@*@*@;.............",
"..................................................................*@*@*@*@*@*@*@*@*@*@*@*@*@*@*@*@*@*@*@*@*@*@*@*@;.............",
"..................................................................*@*@*@*@*@*@*@*@*@*@*@*@*@*@*@*@*@*@*@*@*@*@*@*@;.............",
"....+++++++++++++++.++++++++++++++++++++++++.+++++++++++++++......*@*@*@*@*@*@*@*@*@*@*@*@*@*@*@*@*@*@*@*@*@*@*@*@;.............",
"....+>>>>>>>>>>>>,#.+@@@@@@@@@@@@@@@@@@@@@@#.@>>>>>>>>>>>>,#......*@*@*@*@*@*@*@*@*@*@*@*@*@*@*@*@*@*@*@*@*@*@*@*@;.............",
"....+>'''''''''')+#.+@@****@@@@@@@@@@@@@@@@#.@>)''''''''''+#......@@@@@@@@@@@@@@@@@@@@@@@@@@@@@@@@@@@@@@@@@@@@@@@@@.............",
"....+>''''''+''')+#.+@*@@@@*@@@@@@@@@@@@@@@#.@>)'''+''''''+#......%@*@*@*@*@*@*@*@*@*@*@*@*@*@*@*@*@*@*@*@*@*@*@*@;.............",
"....+>'''''++''')+#.+@*@@@@*@@@@@@@@@@@@@@@#.@>)'''++'''''+#....................................................................",
"....+>''''+++''')+#.+@*@@@@*@@@@@@@@@@@@@@@#.@>)'''+++''''+#......!@!@~@{@]@^@/@(@_@:@<@[@}@|@1@2@3@4@5@6@7@8@9@0@;.............",
"....+>'''++++''')+#.+@=&&&&=@@@@@@@@@@@@@@@#.@>)'''++++'''+#......!@!@~@{@]@^@/@(@_@:@<@[@}@|@1@2@3@4@5@6@7@8@9@0@;.............",
"....+>''''+++''')+#.+@*@@@@*@@@@@@@@@@@@@@@#.@>)'''+++''''+#......!@!@~@{@]@^@/@(@_@:@<@[@}@|@1@2@3@4@5@6@7@8@9@0@;.............",
"....+>'''''++''')+#.+@*@@@@*@@@@@@@@@@@@@@@#.@>)'''++'''''+#......!@!@~@{@]@^@/@(@_@:@<@[@}@|@1@2@3@4@5@6@7@8@9@0@;.............",
"....+>''''''+''')+#.+@*@@@@*@@@@@@@@@@@@@@@#.@>)'''+''''''+#......!@!@~@{@]@^@/@(@_@:@<@[@}@|@1@2@3@4@5@6@7@8@9@0@;.............",
"....+>'''''''''')+#.+@@****@@@@@@@@@@@@@@@@#.@>)''''''''''+#......!@!@~@{@]@^@/@(@_@:@<@[@}@|@1@2@3@4@5@6@7@8@9@0@;.............",
"....+,++++++++++++#.+@@@@@@@@@@@@@@@@@@@@@@#.@,++++++++++++#......!@!@~@{@]@^@/@(@_@:@<@[@}@|@1@2@3@4@5@6@7@8@9@0@;.............",
"....###############.########################.###############......@@@@@@@@@@@@@@@@@@@@@@@@@@@@@@@@@@@@@@@@@@@@@@@@@.............",
"..................................................................%@*@*@*@*@*@*@*@*@*@*@*@*@*@*@*@*@*@*@*@*@*@*@*@;.............",
"................................................................................................................................",
".......................................................................@@@@@@@@@@@@@@@@@@@@@@@@@@@@@@@@@@@@@@@@@@@@@............",
".......................................................................@@@@@@@@@@@@@@@@@@@@@@@@@@@@@@@@@@@@@@@@@@@@@............",
".......................................................................@@@@@@@@@@@@@@@@@@@@@@@@@@@@@@@@@@@@@@@@@@@@@............",
".......................................................................@@@@@@@@@@@@@@@@@@@@@@@@@@@@@@@@@@@@@@@@@@@@@............",
".......................................................................@@@@@@@@@@@@@@@@@@@@@@@@@@@@@@@@@@@@@@@@@@@@@............",
".......................................................................@@@@@@@@@@@@@@@@@@@@@@@@@@@@@@@@@@@@@@@@@@@@@............",
".......................................................................@@@@@aa@@@@bb@@@@cc@@@@@@%%@@@@--@@@@$$@@@@@@............",
".......................................................................@@@@adaa@@bdbb@@cdcc@@@@%>%%@@->--@@$>$$@@@@@............",
".......................................................................@@@@aaaa@@bbbb@@cccc@@@@%%%%@@----@@$$$$@@@@@............",
".......................................................................@@@@@aa@@@@bb@@@@cc@@@@@@%%@@@@--@@@@$$@@@@@@............",
".......................................................................@@@@@@@@@@@@@@@@@@@@@@@@@@@@@@@@@@@@@@@@@@@@@............",
".......................................................................@@@@@@@@@@@@@@@@@@@@@@@@@@@@@@@@@@@@@@@@@@@@@............",
".......................................................................@@@@@@@@@@@@@@@@@@@@@@@@@@@@@@@@@@@@@@@@@@@@@............",
".......................................................................@@@@@@@@@@@@@@@@@@@@@@@@@@@@@@@@@@@@@@@@@@@@@............",
".......................................................................@@@@@@@@@@@@@@@@@@@@@@@@@@@@@@@@@@@@@@@@@@@@@............",
".......................................................................@@@@@@@@@@@@@@@@@@@@@@@@@@@@@@@@@@@@@@@@@@@@@............",
"................................................................................................................................",
"................................................................................................................................",
"....@@@@@@@@@@@@@@@@@@@@@@@@@@@@@@@@@@@@@@@@@@@@@@@@@@@@@@@@@@@@@@@@@@@@@@.@@@@@@@@@@@@@@@@@@@@@.@@@@@@@@@@@@@@@@@@@@@..........",
"....@@***@@@&&&=@=***=@=***=@=&&&=@=***=@=***=@=***=@=***=@=***=@@*@@@@@@@.@&@@&&&@@@&&&@@@&@@@@.@&@@&&&@@@&&&@@@@@@@@..........",
"....@*@@@*@&@@@*@&@@@*@&@@@*@*@@@*@*@@@&@*@@@&@&@@@*@*@@@*@*@@@*@*@*@*@@@@.@&@&@@@&@&@@@&@&@&@&@.@&@&@@@&@&@@@&@@@@@@@..........",
"....@*@@@*@&@@@*@&@@@*@&@@@*@*@@@*@*@@@&@*@@@&@&@@@*@*@@@*@*@@@*@@*@*@@@*@.@&@&@@@&@&@@@&@@&@&@@.@&@&@@@&@&@@@&@@@@@@@..........",
"....@=&&&=@@&&&=@=***=@@***=@=***=@=***=@=***=@@&&&=@=***=@=***=@@@*@@@@@@.@&@&&&&&@&&&&&@@@&@@@.@&@&&&&&@&&&&&@@@@@@@..........",
"....@*@@@*@&@@@*@*@@@&@&@@@*@&@@@*@&@@@*@*@@@*@&@@@*@*@@@*@&@@@*@@*@*@@@@@.@&@&@@@&@&@@@&@@&@&@@.@&@&@@@&@&@@@&@@@@@@@..........",
"....@*@@@*@&@@@*@*@@@&@&@@@*@&@@@*@&@@@*@*@@@*@&@@@*@*@@@*@&@@@*@*@*@*@@*@.@&@&@@@&@&@@@&@&@&@&@.@&@&@@@&@&@@@&@@@@@@@..........",
"....@@***@@@&&&*@=***=@=***=@@&&&=@=***=@=***=@@&&&=@=***=@=***=@@@@*@@@@@.@&@@&&&@@@&&&@@@@@&@@.@&@@&&&@@@&&&@@@@@@@@..........",
"....@@@@@@@@@@@@@@@@@@@@@@@@@@@@@@@@@@@@@@@@@@@@@@@@@@@@@@@@@@@@@@@@@@@@@@.@@@@@@@@@@@@@@@@@@@@@.@@@@@@@@@@@@@@@@@@@@@..........",
"................................................................................................................................",
"................................................................................................................................",
"................................................................................................................................",
"....@@@@@@@@@@@@@@@@@@@@@@@@@@@@@@@@@@@@@@@@@@@@@@@@@@@@@@@@@@@@@@@@@@@@@@@@@@@@..@@@@@@@@@@@@@@@@@@@@@@@@@@@@@@@@@@@@@@@@@@@@..",
"....@@****@@@&&&&=@=****=@=****=@=&&&&=@=****=@=****=@=****=@=****=@=****=@@@@@@..@@@@@@@@****@@@@****@@@@@@@@@****@@@@****@@@..",
"....@*@@@@*@&@@@@*@&@@@@*@&@@@@*@*@@@@*@*@@@@&@*@@@@&@&@@@@*@*@@@@*@*@@@@*@@=*@@..@@@@@@@*@@@@*@@*@@@@*@@@=*@@*@@@@*@@*@@@@*@@..",
"....@*@@@@*@&@@@@*@&@@@@*@&@@@@*@*@@@@*@*@@@@&@*@@@@&@&@@@@*@*@@@@*@*@@@@*@@=*@@..@@@*@@@*@@@@*@@*@@@@*@@@=*@@*@@@@*@@*@@@@*@@..",
"....@*@@@@*@&@@@@*@&@@@@*@&@@@@*@*@@@@*@*@@@@&@*@@@@&@&@@@@*@*@@@@*@*@@@@*@@@@@@..@@@*@@@*@@@@*@@*@@@@*@@@@@@@*@@@@*@@*@@@@*@@..",
"....@=&&&&=@@&&&&=@=****=@=****=@=****=@=****=@=****=@@&&&&=@=****=@=****=@@@@@@..@*****@=&&&&=@@=&&&&=@@@@@@@=&&&&=@@=&&&&=@@..",
"....@*@@@@*@&@@@@*@*@@@@&@&@@@@*@&@@@@*@&@@@@*@*@@@@*@&@@@@*@*@@@@*@&@@@@*@@@@@@..@@@*@@@*@@@@*@@*@@@@*@@@@@@@*@@@@*@@*@@@@*@@..",
"....@*@@@@*@&@@@@*@*@@@@&@&@@@@*@&@@@@*@&@@@@*@*@@@@*@&@@@@*@*@@@@*@&@@@@*@@=*@@..@@@*@@@*@@@@*@@*@@@@*@@@=*@@*@@@@*@@*@@@@*@@..",
"....@*@@@@*@&@@@@*@*@@@@&@&@@@@*@&@@@@*@&@@@@*@*@@@@*@&@@@@*@*@@@@*@&@@@@*@@=*@@..@@@@@@@*@@@@*@@*@@@@*@@@=*@@*@@@@*@@*@@@@*@@..",
"....@@****@@@&&&&=@=****=@=****=@@&&&&=@=****=@=****=@@&&&&=@=****=@=****=@@@@@@..@@@@@@@@****@@@@****@@@@@@@@@****@@@@****@@@..",
"....@@@@@@@@@@@@@@@@@@@@@@@@@@@@@@@@@@@@@@@@@@@@@@@@@@@@@@@@@@@@@@@@@@@@@@@@@@@@..@@@@@@@@@@@@@@@@@@@@@@@@@@@@@@@@@@@@@@@@@@@@..",
"................................................................................................................................",
"................................................................................................................................",
"....@@@@@@@@@@@@@@@@@@@@@@@@@@@@@@@@...@@@@@@@@@@@@@@@@@@@@@@@@@@@@@@@@...........@@@@@@@@@@@@@@@@@@@@@@@@@@@@@@@@@@@@@@@@@@@@..",
"....@++++++++++++,@@@++++++++++++,@@...@@@>>>>>>>>>>>>,@@>>>>>>>>>>>>,@...........@@@@@@@@&&&&@@@@&&&&@@@@@@@@@&&&&@@@@&&&&@@@..",
"....@+'''''''''')>@@@+)''''''''''>@@...@@@>'''''''''')+@@>)''''''''''+@...........@@@@@@@&@@@@&@@&@@@@&@@@=*@@&@@@@&@@&@@@@&@@..",
"....@+''''''+''')>@@@+)'''+''''''>@@...@@@>''''''+''')+@@>)'''+''''''+@...........@@@@@@@&@@@@&@@&@@@@&@@@=*@@&@@@@&@@&@@@@&@@..",
"....@+'''''++''')>@@@+)'''++'''''>@@...@@@>'''''++''')+@@>)'''++'''''+@...........@@@@@@@&@@@@&@@&@@@@&@@@@@@@&@@@@&@@&@@@@&@@..",
"....@+''''+++''')>@@@+)'''+++''''>@@...@@@>''''+++''')+@@>)'''+++''''+@...........@*****@=****=@@=****=@@@@@@@=****=@@=****=@@..",
"....@+'''++++''')>@@@+)'''++++'''>@@...@@@>'''++++''')+@@>)'''++++'''+@...........@@@@@@@&@@@@&@@&@@@@&@@@@@@@&@@@@&@@&@@@@&@@..",
"....@+''''+++''')>@@@+)'''+++''''>@@...@@@>''''+++''')+@@>)'''+++''''+@...........@@@@@@@&@@@@&@@&@@@@&@@@=*@@&@@@@&@@&@@@@&@@..",
"....@+'''''++''')>@@@+)'''++'''''>@@...@@@>'''''++''')+@@>)'''++'''''+@...........@@@@@@@&@@@@&@@&@@@@&@@@=*@@&@@@@&@@&@@@@&@@..",
"....@+''''''+''')>@@@+)'''+''''''>@@...@@@>''''''+''')+@@>)'''+''''''+@...........@@@@@@@@&&&&@@@@&&&&@@@@@@@@@&&&&@@@@&&&&@@@..",
"....@+'''''''''')>@@@+)''''''''''>@@...@@@>'''''''''')+@@>)''''''''''+@...........@@@@@@@@@@@@@@@@@@@@@@@@@@@@@@@@@@@@@@@@@@@@..",
"....@,>>>>>>>>>>>>@@@,>>>>>>>>>>>>@@...@@@,++++++++++++@@,++++++++++++@.........................................................",
"....@@@@@@@@@@@@@@@@@@@@@@@@@@@@@@@@...@@@@@@@@@@@@@@@@@@@@@@@@@@@@@@@@.........................................................",
"....@@@@@@@@@@@@@@@@@@@@@@@@@@@@@@@@...@@@@@@@@@@@@@@@@@@@@@@@@@@@@@@@@.........................................................",
"................................................................................................................................"};
